<?xml version="1.0" standalone="no"?>
<!DOCTYPE svg PUBLIC "-//W3C//DTD SVG 20010904//EN"
 "http://www.w3.org/TR/2001/REC-SVG-20010904/DTD/svg10.dtd">
<svg version="1.0" xmlns="http://www.w3.org/2000/svg"
 width="512.000000pt" height="512.000000pt" viewBox="0 0 512.000000 512.000000"
 preserveAspectRatio="xMidYMid meet">

<g transform="translate(0.000000,512.000000) scale(0.100000,-0.100000)"
fill="#000000" stroke="none">
<path d="M2400 4999 c-573 -53 -1087 -354 -1408 -822 -156 -228 -251 -458
-309 -752 -14 -71 -18 -140 -18 -325 0 -206 3 -249 23 -350 53 -259 175 -546
320 -750 41 -57 153 -182 288 -322 451 -463 676 -771 927 -1274 70 -140 94
-179 132 -212 114 -100 296 -100 409 -1 37 33 63 75 142 232 250 497 466 793
899 1237 122 124 241 252 266 285 197 258 328 571 374 896 17 122 19 369 4
489 -105 853 -759 1526 -1604 1654 -132 20 -327 26 -445 15z m428 -520 c273
-52 512 -180 718 -384 203 -202 330 -435 391 -718 26 -117 25 -428 0 -547
-121 -566 -551 -994 -1115 -1107 -122 -25 -404 -25 -522 0 -320 67 -609 235
-804 467 -153 183 -244 362 -303 596 -25 100 -27 125 -28 309 0 215 9 284 61
442 135 414 473 756 883 893 237 80 471 95 719 49z"/>
<path d="M1987 4186 c-85 -31 -153 -99 -183 -183 -10 -31 -13 -181 -14 -774 0
-827 -3 -795 74 -874 26 -27 60 -49 94 -61 l52 -19 0 -111 c0 -104 1 -112 24
-133 30 -28 95 -38 136 -21 48 20 60 55 60 170 l0 100 330 0 330 0 0 -100 c0
-115 12 -150 60 -170 41 -17 106 -7 136 21 23 21 24 29 24 133 l0 111 53 19
c67 23 129 87 151 153 15 45 16 127 14 799 l-3 749 -23 42 c-28 54 -81 107
-135 135 -42 23 -42 23 -592 25 -445 2 -557 0 -588 -11z m803 -149 c23 -12 25
-18 25 -87 0 -101 4 -100 -255 -100 -259 0 -255 -1 -255 100 0 101 -4 100 255
100 145 0 212 -4 230 -13z m368 -431 l37 -34 3 -214 c4 -240 -2 -275 -51 -310
l-32 -23 -555 0 -555 0 -32 23 c-49 35 -55 70 -51 310 l3 214 37 34 38 34 560
0 560 0 38 -34z m-282 -800 c19 -26 18 -55 -3 -78 -15 -17 -38 -18 -305 -18
-180 0 -297 4 -309 10 -28 15 -26 74 4 95 19 14 60 15 310 13 272 -3 289 -4
303 -22z m-617 -222 c41 -34 44 -92 6 -129 -23 -24 -30 -25 -144 -25 l-119 0
-26 31 c-35 41 -34 83 3 120 29 29 31 29 139 29 104 0 112 -1 141 -26z m882
-3 c37 -37 38 -79 3 -120 l-26 -31 -119 0 c-114 0 -121 1 -144 25 -38 37 -35
95 6 129 29 25 37 26 141 26 108 0 110 0 139 -29z"/>
</g>
</svg>
