<?xml version="1.0" encoding="UTF-8"?>
<svg version="1.1" xmlns="http://www.w3.org/2000/svg" width="512" height="512">
<path d="M0 0 C0.96030624 -0.00997513 1.92061249 -0.01995026 2.91001892 -0.03022766 C3.95174255 -0.03089233 4.99346619 -0.03155701 6.0667572 -0.03224182 C7.17296921 -0.04056534 8.27918121 -0.04888885 9.41891479 -0.0574646 C13.07361878 -0.08155098 16.7281444 -0.09033356 20.38291931 -0.09693909 C22.92209935 -0.1059038 25.46127883 -0.11502561 28.00045776 -0.1242981 C33.3207511 -0.1407851 38.64097752 -0.14852122 43.96128845 -0.15138245 C50.10939678 -0.15502277 56.25700747 -0.18496064 62.40496355 -0.22678703 C68.32471351 -0.26564735 74.24431352 -0.27697458 80.16419792 -0.2781086 C82.6812708 -0.28232266 85.19834366 -0.29480405 87.71533394 -0.31562614 C91.23005614 -0.34239656 94.74339235 -0.33775766 98.25816345 -0.32521057 C99.82378525 -0.34746201 99.82378525 -0.34746201 101.42103577 -0.37016296 C108.44525649 -0.29853587 108.44525649 -0.29853587 111.77523804 2.62411499 C113.09776306 5.27415466 113.09776306 5.27415466 113.09776306 8.27415466 C116.39776306 8.27415466 119.69776306 8.27415466 123.09776306 8.27415466 C123.25245056 7.12946716 123.25245056 7.12946716 123.41026306 5.96165466 C124.17461432 2.97373612 124.67856265 2.11194374 127.09776306 0.27415466 C129.46992773 -0.10189283 129.46992773 -0.10189283 132.33724117 -0.10336876 C133.42960014 -0.111192 134.52195911 -0.11901524 135.64741987 -0.12707555 C137.45467058 -0.11703731 137.45467058 -0.11703731 139.2984314 -0.10679626 C140.57476332 -0.11147624 141.85109525 -0.11615621 143.1661039 -0.120978 C146.71633259 -0.13354048 150.2663204 -0.12729382 153.81655014 -0.11801934 C157.64295541 -0.11124993 161.46931838 -0.12169999 165.29571533 -0.12995911 C172.79713531 -0.14332468 180.29846541 -0.14040517 187.79988896 -0.13172118 C193.90002771 -0.12495158 200.00014124 -0.1240248 206.10028267 -0.12729263 C207.4016711 -0.12798218 207.4016711 -0.12798218 208.7293502 -0.12868566 C210.49185483 -0.12964484 212.25435945 -0.13061748 214.01686407 -0.13160343 C230.56163235 -0.14016677 247.10635084 -0.1303108 263.65111095 -0.11420234 C277.83476937 -0.10081958 292.01835405 -0.10310854 306.20201111 -0.11695862 C322.67280782 -0.13303454 339.14356074 -0.13932028 355.61436421 -0.13012183 C357.37320999 -0.1291662 359.13205577 -0.12822309 360.89090157 -0.12729263 C362.18893724 -0.12659839 362.18893724 -0.12659839 363.51319585 -0.12589013 C369.59853409 -0.12330468 375.68384447 -0.12766208 381.76917839 -0.13473129 C389.19668773 -0.14316979 396.62410203 -0.14081785 404.05160057 -0.12488906 C407.83838445 -0.11703454 411.62501024 -0.11386594 415.41179276 -0.12383652 C419.52607854 -0.13450484 423.63996938 -0.12171807 427.75424194 -0.10679626 C428.93899925 -0.11348843 430.12375656 -0.12018059 431.34441561 -0.12707555 C448.72629361 -0.00520861 463.1121527 6.1826915 475.43370056 18.37571716 C485.23071908 29.03464347 491.31215198 42.43846185 491.37864685 56.96443176 C491.38756022 58.06053518 491.38756022 58.06053518 491.39665365 59.17878211 C491.41386644 61.60433815 491.41703018 64.02969494 491.42002869 66.45530701 C491.42929623 68.20379042 491.43934705 69.95226983 491.45011902 71.70074463 C491.47625689 76.43426102 491.48923437 81.16772083 491.49814034 85.90129805 C491.5040175 88.86232854 491.51222986 91.82334382 491.52114868 94.78436661 C491.54846482 104.05989485 491.56781662 113.33538802 491.57555246 122.61095369 C491.58451666 133.29851155 491.61963977 143.98555819 491.67755365 154.67296064 C491.72083777 162.94922879 491.74096356 171.22535333 491.7436347 179.50173342 C491.74572649 184.43845807 491.75744946 189.37470105 491.79327393 194.311306 C491.8263257 198.95564802 491.83050417 203.5991485 491.81299591 208.24356651 C491.81146011 209.9422564 491.82007564 211.64099243 491.83991241 213.33956718 C491.94356822 222.77275832 491.77884132 230.8690268 485.09776306 238.27415466 C479.84425418 242.49066712 475.17439551 244.40623332 468.42100525 244.38768005 C467.04002655 244.38756676 467.04002655 244.38756676 465.63114929 244.38745117 C464.64560059 244.38228989 463.66005188 244.3771286 462.64463806 244.37181091 C461.62927979 244.37039597 460.61392151 244.36898102 459.5677948 244.36752319 C456.32775414 244.36192982 453.08778281 244.34937851 449.84776306 244.33665466 C447.64984739 244.33163881 445.45193064 244.32707605 443.25401306 244.32298279 C437.86857278 244.31196257 432.48317287 244.295231 427.09776306 244.27415466 C426.96721024 244.88980789 426.83665741 245.50546112 426.70214844 246.13977051 C426.43983681 247.35303261 426.43983681 247.35303261 426.17222595 248.59080505 C426.00042313 249.39208328 425.8286203 250.19336151 425.65161133 251.0189209 C422.6865072 263.09263015 412.72035637 273.15619584 402.65245056 279.80540466 C390.15414449 286.99097513 375.61436304 288.19046157 361.53916931 285.62571716 C345.89886643 280.765384 334.80144939 271.55648401 327.09776306 257.27415466 C323.09776306 247.99180172 323.09776306 247.99180172 323.09776306 244.27415466 C268.64776306 244.60415466 214.19776306 244.93415466 158.09776306 245.27415466 C156.77776306 248.90415466 155.45776306 252.53415466 154.09776306 256.27415466 C147.21364948 270.35613499 136.88443386 279.01726128 122.28916931 284.54759216 C110.09940461 288.58911843 94.67184863 287.56785009 83.09776306 282.27415466 C69.88908919 275.44878905 60.24610185 265.11423995 54.90635681 251.16087341 C54.09776306 248.27415466 54.09776306 248.27415466 54.09776306 244.27415466 C53.40142761 244.2808165 52.70509216 244.28747833 51.98765564 244.29434204 C45.39735898 244.35467073 38.80714037 244.40023894 32.21662903 244.42959118 C28.82906734 244.44518927 25.44173549 244.46631872 22.05430603 244.50047302 C18.15206403 244.53698942 14.25014515 244.55391216 10.34776306 244.56712341 C8.53949036 244.5903492 8.53949036 244.5903492 6.69468689 244.61404419 C-1.12303937 244.6155973 -7.31608616 244.1931146 -13.58973694 239.08665466 C-18.93529264 232.58530313 -21.65703968 227.83418377 -21.53042603 219.31761169 C-21.53752041 218.45070772 -21.5446148 217.58380375 -21.55192417 216.69062996 C-21.56943824 213.80394946 -21.55143318 210.91862723 -21.53334045 208.03196716 C-21.53848178 205.95511769 -21.54576467 203.87827258 -21.55502319 201.80143738 C-21.57351796 196.17328951 -21.56061045 190.54561614 -21.54093289 184.9174881 C-21.52452938 179.02221132 -21.53336167 173.12696419 -21.53845215 167.23167419 C-21.54297118 157.33234593 -21.52711489 147.43320674 -21.49916077 137.53392029 C-21.46710987 126.09580925 -21.46712532 114.65803919 -21.48437554 103.21990395 C-21.50024994 92.20797585 -21.49350113 81.19617253 -21.47643852 70.18424988 C-21.46957345 65.50180227 -21.47059495 60.81945484 -21.47798347 56.13700867 C-21.48565545 50.6211131 -21.47348998 45.10560468 -21.44613457 39.58977509 C-21.43925929 37.56776834 -21.43914354 35.54572538 -21.4463501 33.52371979 C-21.45506705 30.75894981 -21.43905084 27.99536848 -21.41690063 25.23069763 C-21.4251414 24.43457628 -21.43338217 23.63845493 -21.44187266 22.81820869 C-21.34652855 16.35006863 -19.4057086 11.17526948 -15.15614319 6.25071716 C-14.59797913 5.80470154 -14.03981506 5.35868591 -13.46473694 4.89915466 C-12.909151 4.43767029 -12.35356506 3.97618591 -11.78114319 3.50071716 C-7.98267805 1.02105385 -4.51288801 0.0252593 0 0 Z " fill="#242120" transform="translate(20.902236938476563,112.72584533691406)"/>
<path d="M0 0 C3.3 0 6.6 0 10 0 C10.4021875 1.4540625 10.4021875 1.4540625 10.8125 2.9375 C11.4003125 4.4534375 11.4003125 4.4534375 12 6 C15.00648792 7.00216264 16.99707413 7.12774243 20.13853645 7.13307858 C21.20836175 7.13731962 22.27818705 7.14156067 23.38043129 7.14593023 C24.56007482 7.1455441 25.73971834 7.14515797 26.95510864 7.14476013 C28.2049724 7.14828698 29.45483616 7.15181382 30.74257457 7.15544754 C34.21870576 7.16515642 37.69482051 7.16869781 41.17096329 7.17129052 C44.91754698 7.17518136 48.6641161 7.18481901 52.41069031 7.19384766 C58.90620757 7.2087957 65.40172368 7.22033625 71.89725113 7.22979546 C81.29855302 7.24366425 90.699828 7.26485207 100.10111056 7.28822399 C115.36622881 7.32615804 130.63135193 7.36111734 145.89648438 7.39282227 C147.26757653 7.395673 147.26757653 7.395673 148.66636752 7.39858133 C161.62988065 7.42539671 174.59339756 7.44927414 187.55691849 7.47196633 C188.92528192 7.47436229 188.92528192 7.47436229 190.32128906 7.47680664 C191.23241991 7.47840011 192.14355075 7.47999357 193.08229162 7.48163532 C208.28224663 7.5084165 223.48217307 7.5428229 238.68209732 7.58346039 C248.05710349 7.60821847 257.43207894 7.62655465 266.80711262 7.636616 C273.23514897 7.64401568 279.66314409 7.65855512 286.0911531 7.67868023 C289.79854255 7.69005405 293.50586553 7.69820687 297.213274 7.69767189 C301.23658997 7.69716352 305.25970637 7.71200353 309.2829895 7.72825623 C311.03237829 7.72433094 311.03237829 7.72433094 312.81710827 7.72032636 C326.87614752 7.80903199 339.01603259 11.35064611 349.5 21.125 C354.80059145 26.59049874 358.5058708 32.52935401 360 40 C306.21 40 252.42 40 197 40 C196.34 37.36 195.68 34.72 195 32 C192.16253753 29.65686232 189.32544493 29.74388905 185.73121643 29.72584534 C184.66434601 29.71587021 183.59747559 29.70589508 182.49827576 29.69561768 C180.75031456 29.69462067 180.75031456 29.69462067 178.96704102 29.69360352 C177.73578491 29.68528 176.50452881 29.67695648 175.23596191 29.66838074 C171.86193414 29.64841212 168.48815311 29.63764015 165.11408734 29.63255429 C163.00540358 29.62890884 160.8967435 29.62266788 158.78806877 29.6155529 C151.42958408 29.59106825 144.07116982 29.57800816 136.71264648 29.57446289 C129.85625849 29.57082593 123.00031767 29.54091712 116.14406639 29.49905831 C110.25434415 29.46436237 104.3647702 29.4489146 98.47494644 29.44821686 C94.95853424 29.44742394 91.44257793 29.4386792 87.92627144 29.41021919 C84.00478926 29.3791882 80.08395029 29.38809491 76.16235352 29.40063477 C74.99907028 29.38580048 73.83578705 29.37096619 72.63725281 29.35568237 C66.31401938 29.38190652 66.31401938 29.38190652 60.80235291 32.22496033 C59.00277917 34.99572098 58.53255851 36.80129102 58 40 C56.91551638 40.00219984 56.91551638 40.00219984 55.80912399 40.00444412 C38.22425846 40.04148174 20.63960395 40.10045579 3.05489731 40.18390274 C-5.44891938 40.22372694 -13.95264307 40.25610219 -22.45654297 40.27099609 C-29.86780156 40.28399516 -37.27885582 40.31091491 -44.68999934 40.35461307 C-48.61487818 40.37726745 -52.53950463 40.39290832 -56.46445465 40.39188385 C-60.15819277 40.39113956 -63.85137216 40.40899619 -67.54496574 40.44116783 C-69.54802958 40.45375892 -71.55118701 40.4465848 -73.55427551 40.43885803 C-74.74616989 40.45277084 -75.93806427 40.46668365 -77.16607666 40.48101807 C-78.20217197 40.48470524 -79.23826729 40.48839241 -80.30575943 40.49219131 C-83.74168146 41.13979163 -84.92428316 42.22240174 -87 45 C-87.59041441 47.03251875 -87.59041441 47.03251875 -87.50793457 49.21252441 C-87.51921387 50.04524368 -87.53049316 50.87796295 -87.54211426 51.73591614 C-87.53401733 52.64097397 -87.52592041 53.5460318 -87.51757812 54.47851562 C-87.5245874 55.43827805 -87.53159668 56.39804047 -87.53881836 57.3868866 C-87.55642759 60.5603018 -87.54476489 63.73282568 -87.53125 66.90625 C-87.53394406 69.11055676 -87.53782577 71.31486235 -87.54284668 73.51916504 C-87.54874571 78.13935661 -87.54016547 82.7592389 -87.52148438 87.37939453 C-87.49869491 93.30475736 -87.51181578 99.22939551 -87.53577423 105.15473175 C-87.55022107 109.70661897 -87.54563127 114.25833407 -87.53526306 118.81022644 C-87.53259271 120.99513332 -87.53587633 123.18005576 -87.54518127 125.36494446 C-87.55532824 128.41754611 -87.53987105 131.46897052 -87.51757812 134.52148438 C-87.52567505 135.42654221 -87.53377197 136.33160004 -87.54211426 137.26408386 C-87.52519531 138.51316277 -87.52519531 138.51316277 -87.50793457 139.78747559 C-87.50567242 140.86924198 -87.50567242 140.86924198 -87.50336456 141.97286224 C-86.75871239 144.97170771 -85.4401451 146.14949675 -83 148 C-80.24847336 148.60310421 -80.24847336 148.60310421 -77.16607666 148.51898193 C-75.97418228 148.53289474 -74.7822879 148.54680756 -73.55427551 148.56114197 C-71.59816597 148.55359642 -71.59816597 148.55359642 -69.60253906 148.54589844 C-68.21279239 148.55463427 -66.82305577 148.56512009 -65.43333435 148.57722473 C-61.66295039 148.60510477 -57.89289429 148.60848899 -54.12242222 148.60750484 C-50.18121037 148.61063226 -46.24014657 148.63624684 -42.29901123 148.65948486 C-34.83700211 148.70006168 -27.3750804 148.72038948 -19.91297793 148.73345876 C-9.82869653 148.7522894 0.25542644 148.80236636 10.33960152 148.85070229 C26.2263928 148.92602704 42.11299283 148.95957505 58 149 C58 172.1 58 195.2 58 219 C53.71 219 49.42 219 45 219 C44.195625 216.1228125 44.195625 216.1228125 43.375 213.1875 C39.06281569 199.33442008 31.60159939 187.39448453 18.62109375 180.24609375 C5.55459069 174.03414967 -9.33041143 171.20966449 -23.4375 175.625 C-38.7920498 181.61138398 -48.39875665 190.99065963 -55.8125 205.5625 C-56.82283647 208.48715821 -57.48888586 211.18938896 -58.07421875 214.21484375 C-58.24912842 215.11195068 -58.42403809 216.00905762 -58.60424805 216.93334961 C-58.73484619 217.61534424 -58.86544434 218.29733887 -59 219 C-66.75948954 219.10133362 -74.51880876 219.17143783 -82.27880859 219.21972656 C-84.91917294 219.23985475 -87.55949265 219.26715987 -90.19970703 219.30175781 C-93.99262501 219.3502205 -97.78495416 219.3729572 -101.578125 219.390625 C-103.35174408 219.42159271 -103.35174408 219.42159271 -105.16119385 219.45318604 C-106.26203308 219.45348816 -107.36287231 219.45379028 -108.49707031 219.45410156 C-109.46525696 219.46298401 -110.4334436 219.47186646 -111.43096924 219.48101807 C-114.7510777 218.85937033 -115.9356568 217.61992316 -118 215 C-118.390625 212.421875 -118.390625 212.421875 -118.25 209.75 C-118.21390625 208.85796875 -118.1778125 207.9659375 -118.140625 207.046875 C-118.09421875 206.37140625 -118.0478125 205.6959375 -118 205 C-117.24976562 204.98582031 -116.49953125 204.97164062 -115.7265625 204.95703125 C-106.49572758 204.52687899 -98.91571362 202.55159865 -92.5 195.5625 C-87.96367035 189.59094741 -87.10275339 183.33697857 -88 176 C-89.81979249 169.83232006 -93.66106842 165.48529005 -99 162 C-103.115713 160.0233043 -106.77413988 159.62948748 -111.3125 159.375 C-112.56675781 159.30023438 -113.82101563 159.22546875 -115.11328125 159.1484375 C-116.54220703 159.07496094 -116.54220703 159.07496094 -118 159 C-118.1167493 139.90273306 -118.2049469 120.80553842 -118.25906086 101.70798874 C-118.28485366 92.84084908 -118.32002457 83.97393102 -118.37719727 75.10693359 C-118.42699951 67.37935371 -118.45928319 59.65193429 -118.47044247 51.92419839 C-118.47696671 47.83150385 -118.4923222 43.73926842 -118.52865028 39.64672089 C-118.56255997 35.79545704 -118.57306343 31.94484187 -118.56553841 28.09344292 C-118.56691524 26.67926192 -118.57687851 25.26505948 -118.59602737 23.85100746 C-118.62087853 21.92139972 -118.61194864 19.99144478 -118.60127258 18.06170654 C-118.60588155 16.98136517 -118.61049051 15.90102379 -118.61523914 14.78794479 C-118 12 -118 12 -115.75499439 9.65315914 C-112.92105872 7.95263057 -111.56634867 7.49759111 -108.31881714 7.48774719 C-107.40755066 7.47527954 -106.49628418 7.46281189 -105.55740356 7.44996643 C-104.07661819 7.45986855 -104.07661819 7.45986855 -102.56591797 7.4699707 C-101.51662109 7.46123932 -100.46732422 7.45250793 -99.38623047 7.44351196 C-95.92137555 7.4191343 -92.45711728 7.42254691 -88.9921875 7.42578125 C-86.58512351 7.41333867 -84.17806861 7.39900517 -81.77102661 7.38285828 C-75.43628061 7.34480435 -69.10169104 7.32963942 -62.7668457 7.32006836 C-52.6196805 7.30033546 -42.47263477 7.243554 -32.32559586 7.19130516 C-28.77636931 7.17592933 -25.22720202 7.16876225 -21.677948 7.16316223 C-19.51039603 7.15614772 -17.34284433 7.14904694 -15.17529297 7.1418457 C-14.18405426 7.14237442 -13.19281555 7.14290314 -12.17153931 7.14344788 C-11.26591248 7.1394397 -10.36028564 7.13543152 -9.42721558 7.13130188 C-8.24646108 7.12941597 -8.24646108 7.12941597 -7.04185295 7.12749195 C-4.79745214 7.07498021 -4.79745214 7.07498021 -2 6 C-0.77479736 2.99152582 -0.77479736 2.99152582 0 0 Z " fill="#F1FD52" transform="translate(134,121)"/>
<path d="M0 0 C30.36 0 60.72 0 92 0 C92 25.41 92 50.82 92 77 C65.1875 77.3125 65.1875 77.3125 56.72729492 77.38793945 C54.52000212 77.42021743 52.31272493 77.45358944 50.10546875 77.48828125 C48.95485962 77.49452515 47.80425049 77.50076904 46.61877441 77.50720215 C45.52278931 77.52714233 44.4268042 77.54708252 43.29760742 77.56762695 C42.34496506 77.57873001 41.39232269 77.58983307 40.41081238 77.60127258 C37.96255955 77.82107985 37.96255955 77.82107985 36.19624329 79.31217957 C34.1616216 82.18289667 34.58411428 84.613502 35 88 C37.02216986 90.61114714 38.2265877 91.83900103 41.49310303 92.51898193 C42.89208832 92.5323056 42.89208832 92.5323056 44.31933594 92.54589844 C45.38013367 92.56561707 46.4409314 92.58533569 47.53387451 92.60565186 C48.67253967 92.60688049 49.81120483 92.60810913 50.984375 92.609375 C52.74047089 92.63417938 52.74047089 92.63417938 54.53204346 92.65948486 C58.27141511 92.70807081 62.01037976 92.72936033 65.75 92.75 C68.28517684 92.77815066 70.82033464 92.80807679 73.35546875 92.83984375 C79.57023835 92.91383281 85.78489299 92.96541324 92 93 C92 95.97 92 98.94 92 102 C90.73285156 102.02578125 89.46570313 102.0515625 88.16015625 102.078125 C75.49281081 102.22399261 75.49281081 102.22399261 64 107 C63.071875 107.5775 62.14375 108.155 61.1875 108.75 C56.3200155 113.75655548 54.73097243 118.45937774 54.4375 125.4375 C54.66811299 131.66405065 55.85500631 136.2642256 60 141 C65.16951532 145.28227801 69.89033902 148.01421894 76.66796875 148.31640625 C77.56064453 148.35830078 78.45332031 148.40019531 79.37304688 148.44335938 C80.30181641 148.48267578 81.23058594 148.52199219 82.1875 148.5625 C83.59805664 148.62727539 83.59805664 148.62727539 85.03710938 148.69335938 C87.35792854 148.79938665 89.67885325 148.90145029 92 149 C92.10867302 150.58179615 92.18589827 152.16577153 92.25 153.75 C92.29640625 154.63171875 92.3428125 155.5134375 92.390625 156.421875 C92 159 92 159 90.61035156 161.30371094 C86.56012032 163.93567939 82.71030484 163.4942217 77.984375 163.390625 C77.01340881 163.38496521 76.04244263 163.37930542 75.04205322 163.37347412 C71.94419831 163.35110311 68.84750467 163.30090473 65.75 163.25 C63.64845422 163.22993597 61.54689028 163.21168503 59.4453125 163.1953125 C54.2964283 163.1512358 49.14841097 163.08220258 44 163 C43.82259277 162.21351074 43.64518555 161.42702148 43.46240234 160.61669922 C42.06121048 154.67415256 40.6186448 149.4485403 37.625 144.125 C37.06039062 143.09632813 36.49578125 142.06765625 35.9140625 141.0078125 C29.14897065 130.37695388 18.16796137 122.44724707 6 119 C-8.3038564 116.03778293 -22.09970183 117.26681495 -34.83984375 124.64453125 C-37.34923292 126.31619953 -39.67966628 128.07612618 -42 130 C-42.63421875 130.52207031 -43.2684375 131.04414063 -43.921875 131.58203125 C-53.26686777 140.07935874 -57.03252375 151.13009501 -60 163 C-64.29 163 -68.58 163 -73 163 C-73 139.9 -73 116.8 -73 93 C-63.34169922 92.97873047 -63.34169922 92.97873047 -53.48828125 92.95703125 C-49.40945025 92.93697455 -45.33073192 92.91545756 -41.25195312 92.88867188 C-34.7777058 92.8462943 -28.30374402 92.80933016 -21.8293457 92.80444336 C-16.60953999 92.80016531 -11.39037323 92.77174317 -6.17076683 92.72656822 C-4.17931019 92.7135775 -2.18777714 92.7092911 -0.19628334 92.71384621 C2.5933979 92.71874098 5.38120359 92.69271018 8.1706543 92.65942383 C9.40603943 92.67236229 9.40603943 92.67236229 10.66638184 92.68556213 C14.90153341 92.60083399 16.56186196 92.33174326 20.05183411 89.68925476 C22.36055318 87.05575104 22.36055318 87.05575104 22 83.3125 C21.30616669 79.74460887 21.30616669 79.74460887 18 78 C12.06 77.67 6.12 77.34 0 77 C0 51.59 0 26.18 0 0 Z " fill="#95D0EB" transform="translate(404,177)"/>
<path d="M0 0 C34.98 0 69.96 0 106 0 C106 22.44 106 44.88 106 68 C71.02 68 36.04 68 0 68 C0 45.56 0 23.12 0 0 Z " fill="#F3FF53" transform="translate(209,270)"/>
<path d="M0 0 C3.63 0 7.26 0 11 0 C11.680625 1.4540625 11.680625 1.4540625 12.375 2.9375 C13.65786221 6.07079582 13.65786221 6.07079582 16 7 C17.69463258 7.11902812 19.39371122 7.17714687 21.09228516 7.20532227 C22.15323395 7.22526749 23.21418274 7.24521271 24.30728149 7.26576233 C25.45626923 7.28247482 26.60525696 7.29918732 27.7890625 7.31640625 C29.54940323 7.3475779 29.54940323 7.3475779 31.3453064 7.37937927 C35.10514304 7.44491983 38.86505122 7.50378076 42.625 7.5625 C45.16927832 7.60568092 47.71354933 7.64929507 50.2578125 7.69335938 C56.50513207 7.80060582 62.75252326 7.9023638 69 8 C69 10.97 69 13.94 69 17 C67.73285156 17.02578125 66.46570313 17.0515625 65.16015625 17.078125 C52.49281081 17.22399261 52.49281081 17.22399261 41 22 C40.071875 22.5775 39.14375 23.155 38.1875 23.75 C33.3200155 28.75655548 31.73097243 33.45937774 31.4375 40.4375 C31.66811299 46.66405065 32.85500631 51.2642256 37 56 C42.16951532 60.28227801 46.89033902 63.01421894 53.66796875 63.31640625 C55.00698242 63.37924805 55.00698242 63.37924805 56.37304688 63.44335938 C57.30181641 63.48267578 58.23058594 63.52199219 59.1875 63.5625 C60.59805664 63.62727539 60.59805664 63.62727539 62.03710938 63.69335938 C64.35792854 63.79938665 66.67885325 63.90145029 69 64 C69.10867302 65.58179615 69.18589827 67.16577153 69.25 68.75 C69.29640625 69.63171875 69.3428125 70.5134375 69.390625 71.421875 C69 74 69 74 67.61035156 76.30371094 C63.56012032 78.93567939 59.71030484 78.4942217 54.984375 78.390625 C54.01340881 78.38496521 53.04244263 78.37930542 52.04205322 78.37347412 C48.94419831 78.35110311 45.84750467 78.30090473 42.75 78.25 C40.64845422 78.22993597 38.54689028 78.21168503 36.4453125 78.1953125 C31.2964283 78.1512358 26.14841097 78.08220258 21 78 C20.82259277 77.21351074 20.64518555 76.42702148 20.46240234 75.61669922 C19.06121048 69.67415256 17.6186448 64.4485403 14.625 59.125 C14.06039062 58.09632813 13.49578125 57.06765625 12.9140625 56.0078125 C6.14897065 45.37695388 -4.83203863 37.44724707 -17 34 C-31.3038564 31.03778293 -45.09970183 32.26681495 -57.83984375 39.64453125 C-60.34923292 41.31619953 -62.67966628 43.07612618 -65 45 C-65.95132812 45.78310547 -65.95132812 45.78310547 -66.921875 46.58203125 C-76.26686777 55.07935874 -80.03252375 66.13009501 -83 78 C-87.29 78 -91.58 78 -96 78 C-96 54.9 -96 31.8 -96 8 C-86.34169922 7.97873047 -86.34169922 7.97873047 -76.48828125 7.95703125 C-72.40945025 7.93697455 -68.33073192 7.91545756 -64.25195312 7.88867188 C-57.7777058 7.8462943 -51.30374402 7.80933016 -44.8293457 7.80444336 C-39.60953999 7.80016531 -34.39037323 7.77174317 -29.17076683 7.72656822 C-27.17931019 7.7135775 -25.18777714 7.7092911 -23.19628334 7.71384621 C-20.4066021 7.71874098 -17.61879641 7.69271018 -14.8293457 7.65942383 C-13.59396057 7.67236229 -13.59396057 7.67236229 -12.33361816 7.68556213 C-8.04137069 7.59969173 -6.4716794 7.38124824 -3.01066589 4.58378601 C-1.01514864 2.19393515 -1.01514864 2.19393515 0 0 Z " fill="#F1FD52" transform="translate(427,262)"/>
<path d="M0 0 C18.81 0 37.62 0 57 0 C57 25.41 57 50.82 57 77 C38.19 77 19.38 77 0 77 C0 51.59 0 26.18 0 0 Z " fill="#51AFC9" transform="translate(331,177)"/>
<path d="M0 0 C18.81 0 37.62 0 57 0 C57 25.41 57 50.82 57 77 C38.19 77 19.38 77 0 77 C0 51.59 0 26.18 0 0 Z " fill="#94CFEA" transform="translate(135,177)"/>
<path d="M0 0 C18.81 0 37.62 0 57 0 C57 25.41 57 50.82 57 77 C38.19 77 19.38 77 0 77 C0 51.59 0 26.18 0 0 Z " fill="#51AFC8" transform="translate(62,177)"/>
<path d="M0 0 C8.58264041 5.32965995 15.0238623 12.86787438 18.13671875 22.54296875 C20.11206804 32.85868172 18.9159123 42.6828631 13.55859375 51.74609375 C8.96906965 58.30113143 3.82007103 62.47458014 -3.44140625 65.74609375 C-4.08851563 66.06449219 -4.735625 66.38289063 -5.40234375 66.7109375 C-13.32496026 70.21952481 -21.90279233 69.54147567 -29.96484375 66.77734375 C-39.47547602 62.81708047 -46.24034399 57.4800357 -50.72265625 48.05078125 C-55.01160203 37.54286408 -56.18915377 28.11933683 -51.765625 17.34765625 C-46.66661842 7.3301389 -38.67710441 0.29388374 -28.140625 -3.5625 C-18.73534782 -5.97166651 -8.57935432 -4.40635638 0 0 Z " fill="#242021" transform="translate(144.44140625,314.25390625)"/>
<path d="M0 0 C8.30420062 6.10457605 12.99146319 13.28739089 15.375 23.3046875 C16.36403401 33.83904979 15.7509314 43.31249853 9.38671875 52.02734375 C4.98745161 57.18641523 0.46344219 61.29714377 -5.625 64.3046875 C-6.22570312 64.62179687 -6.82640625 64.93890625 -7.4453125 65.265625 C-15.28807152 68.84244815 -24.39591772 68.34904606 -32.4375 65.6796875 C-43.19349747 61.22407808 -51.14358554 53.30476997 -55.70703125 42.59765625 C-58.16909346 33.76566287 -58.11271686 22.92435032 -54.08203125 14.578125 C-48.04268302 5.15479881 -40.02885721 -1.94473624 -29.23828125 -5.1875 C-18.42799749 -7.28815305 -9.18979301 -5.93507465 0 0 Z " fill="#242021" transform="translate(416.625,315.6953125)"/>
<path d="M0 0 C15.18 0 30.36 0 46 0 C46 29.04 46 58.08 46 88 C30.82 88 15.64 88 0 88 C0 58.96 0 29.92 0 0 Z " fill="#50AEC7" transform="translate(208,166)"/>
<path d="M0 0 C14.85 0 29.7 0 45 0 C45 29.04 45 58.08 45 88 C30.15 88 15.3 88 0 88 C0 58.96 0 29.92 0 0 Z " fill="#96D1EC" transform="translate(270,166)"/>
<path d="M0 0 C0.89877365 -0.00549866 1.7975473 -0.01099731 2.72355652 -0.0166626 C3.69675842 -0.00228149 4.66996033 0.01209961 5.6726532 0.0269165 C6.70726181 0.0263324 7.74187042 0.02574829 8.80783081 0.02514648 C12.22234321 0.02792979 15.63597912 0.05903467 19.05033875 0.09039307 C21.41973392 0.09785455 23.78913527 0.10354792 26.15853882 0.10754395 C32.3910174 0.12280742 38.62312239 0.16209601 44.85545349 0.20635986 C51.21658779 0.2472968 57.57778253 0.26555163 63.93901062 0.28570557 C76.41769028 0.32858905 88.8960928 0.39684952 101.3745575 0.48101807 C101.3745575 0.81101807 101.3745575 1.14101807 101.3745575 1.48101807 C72.0045575 1.48101807 42.6345575 1.48101807 12.3745575 1.48101807 C12.0445575 51.97101807 11.7145575 102.46101807 11.3745575 154.48101807 C9.0645575 153.82101807 6.7545575 153.16101807 4.3745575 152.48101807 C1.90171259 152.20769006 -0.5790897 151.99795251 -3.0629425 151.85601807 C-4.29915344 151.78125244 -5.53536438 151.70648682 -6.80903625 151.62945557 C-8.20315735 151.555979 -8.20315735 151.555979 -9.6254425 151.48101807 C-9.7421918 132.38375112 -9.8303894 113.28655649 -9.88450336 94.18900681 C-9.91029617 85.32186715 -9.94546707 76.45494909 -10.00263977 67.58795166 C-10.05244201 59.86037178 -10.08472569 52.13295236 -10.09588498 44.40521646 C-10.10240921 40.31252192 -10.1177647 36.22028648 -10.15409279 32.12773895 C-10.18800248 28.2764751 -10.19850593 24.42585994 -10.19098091 20.57446098 C-10.19235774 19.16027998 -10.20232101 17.74607755 -10.22146988 16.33202553 C-10.24632104 14.40241778 -10.23739114 12.47246284 -10.22671509 10.54272461 C-10.23132405 9.46238323 -10.23593302 8.38204185 -10.24068165 7.26896286 C-9.6254425 4.48101807 -9.6254425 4.48101807 -7.37695312 2.13222504 C-4.55285159 0.43745558 -3.23337444 -0.01534223 0 0 Z " fill="#DAE36D" transform="translate(25.625442504882813,128.51898193359375)"/>
<path d="M0 0 C9.70563771 4.20625002 16.85161532 11.64224443 21.30859375 21.17578125 C24.52454992 29.66081815 24.21947784 39.96978605 21 48.375 C16.52144892 57.72208835 10.31294951 63.64111949 1 68 C0.34 68.3609375 -0.32 68.721875 -1 69.09375 C-4.663545 70.75379383 -8.08910699 70.83483759 -12 70 C-17.70443265 66.61142665 -21.12958954 61.86042135 -24 56 C-23.195625 56.165 -22.39125 56.33 -21.5625 56.5 C-13.51591856 57.62934476 -7.01328587 57.57332667 0 53 C6.05999993 47.57485721 8.93018241 42.39244736 9.4375 34.25 C9.28082272 27.75768505 6.98411609 21.90254572 2.28515625 17.33203125 C-2.62035545 13.67168226 -7.32026825 11.71702662 -13.5 11.8125 C-14.4178125 11.81894531 -15.335625 11.82539063 -16.28125 11.83203125 C-18.93865687 11.99621012 -21.40626246 12.41265001 -24 13 C-18.19560803 1.62339173 -12.74555188 -3.57073827 0 0 Z " fill="#595C5C" transform="translate(140,312)"/>
<path d="M0 0 C10.08248651 3.07327129 17.5859763 9.32841478 22.80859375 18.375 C27.10785025 27.84746022 27.66078989 38.86684799 24.5625 48.8125 C20.26231297 59.00834982 11.91133233 66.03800043 1.9375 70.3125 C-4.10377358 71.72641509 -4.10377358 71.72641509 -8 71 C-13.02134504 67.11836814 -16.95850008 63.08129341 -19 57 C-18.15308594 57.23589844 -18.15308594 57.23589844 -17.2890625 57.4765625 C-9.95960144 59.15258261 -3.83836039 58.25986535 2.73046875 54.62890625 C7.43034265 51.2556749 11.00080192 46.7743131 12 41 C12.66727125 33.79347048 12.95416728 27.6229528 8.4921875 21.6484375 C3.81650256 16.48315204 -0.62145795 13.17505399 -7.76953125 12.8046875 C-9.11732715 12.81783673 -10.46505695 12.8414751 -11.8125 12.875 C-12.50537109 12.88402344 -13.19824219 12.89304687 -13.91210938 12.90234375 C-15.60822395 12.92573843 -17.30415871 12.96160359 -19 13 C-15.00461903 5.00923807 -9.93915396 -2.12849666 0 0 Z " fill="#5A5C5C" transform="translate(406,311)"/>
<path d="M0 0 C0 0.33 0 0.66 0 1 C-1.175625 1.165 -2.35125 1.33 -3.5625 1.5 C-8.97180267 2.82826293 -12.03199087 6.44044975 -15 11 C-15.15082031 11.69738281 -15.30164063 12.39476562 -15.45703125 13.11328125 C-16 15 -16 15 -17.671875 16.23828125 C-18.35765625 16.59277344 -19.0434375 16.94726562 -19.75 17.3125 C-24.99221313 20.35241892 -28.05628085 24.16884255 -30 30 C-30.89484493 38.07625867 -30.41251964 44.18788483 -25.78515625 50.9921875 C-24.04996506 52.94380297 -22.67692162 54.0042228 -20.375 55.1875 C-16.78133089 57.11743341 -15.88378658 58.55630607 -14.08984375 62.12109375 C-11.52708431 66.53932777 -7.95555722 70.37588599 -3.0625 71.9375 C-2.381875 71.958125 -1.70125 71.97875 -1 72 C-1 72.33 -1 72.66 -1 73 C-12.61313363 73.66466266 -22.05443015 72.14207975 -31.2265625 64.6171875 C-38.30376851 58.16352387 -43.64939222 50.67851948 -44.44921875 40.86328125 C-44.93410025 29.59573783 -43.19044655 21.4515493 -35.75 12.6875 C-25.24856356 1.7399241 -14.89332375 -0.57200532 0 0 Z " fill="#414343" transform="translate(404,310)"/>
<path d="M0 0 C-1.051875 1.0209375 -1.051875 1.0209375 -2.125 2.0625 C-4.22744421 4.17695817 -6.26472511 6.33745761 -8.25 8.5625 C-8.75015625 9.12066406 -9.2503125 9.67882812 -9.765625 10.25390625 C-11.12484742 11.9460462 -11.12484742 11.9460462 -11.49609375 14.09375 C-12.33961793 17.2847562 -15.32418099 18.2685877 -18 20 C-22.38398723 24.63450078 -24.7085147 29.4599138 -25.4375 35.8125 C-25.1639889 41.68159242 -23.26599899 47.54727058 -19.24609375 51.8984375 C-17.54651956 53.35318785 -15.80663149 54.68284995 -14 56 C-11.98423001 58.01576999 -10.70243499 59.96869165 -9.1875 62.375 C-6.19108632 66.89871191 -3.61628496 70.30232401 1.8125 71.75 C2.534375 71.8325 3.25625 71.915 4 72 C4 72.33 4 72.66 4 73 C-7.76941579 73.60413351 -17.52916232 71.29015741 -27 64 C-34.21891967 56.79488324 -39.05628004 46.74879857 -39.3125 36.5 C-39.18477602 25.91168226 -35.26860796 17.61048523 -28 10 C-19.90623897 2.46152819 -11.00918402 -0.84325665 0 0 Z " fill="#414343" transform="translate(129,310)"/>
<path d="M0 0 C1.65497356 3.30994713 1.10084335 6.99123 1.0625 10.625 C1.05798828 11.42679687 1.05347656 12.22859375 1.04882812 13.0546875 C1.03703168 15.03649006 1.01909605 17.01825433 1 19 C-1.91765891 19.10806144 -4.83131125 19.18732877 -7.75 19.25 C-8.575 19.28351563 -9.4 19.31703125 -10.25 19.3515625 C-16.31753827 19.44942602 -16.31753827 19.44942602 -19.5625 17.3125 C-21.28777733 14.53705387 -21.42052549 12.98998438 -21.25 9.75 C-21.21390625 8.85796875 -21.1778125 7.9659375 -21.140625 7.046875 C-21.09421875 6.37140625 -21.0478125 5.6959375 -21 5 C-20.23816406 4.97421875 -19.47632812 4.9484375 -18.69140625 4.921875 C-11.65173196 4.53517629 -6.20605881 3.36945112 0 0 Z " fill="#DBE46E" transform="translate(37,321)"/>
<path d="M0 0 C0.78552246 0.01047363 1.57104492 0.02094727 2.38037109 0.03173828 C3.23115234 0.03818359 4.08193359 0.04462891 4.95849609 0.05126953 C6.29267578 0.07640625 6.29267578 0.07640625 7.65380859 0.10205078 C8.99958984 0.11558594 8.99958984 0.11558594 10.37255859 0.12939453 C12.59142182 0.15299946 14.8101483 0.18887116 17.02880859 0.22705078 C17.02880859 4.84705078 17.02880859 9.46705078 17.02880859 14.22705078 C14.29796957 14.36253894 11.57389052 14.46134934 8.84130859 14.53955078 C7.68791992 14.60239258 7.68791992 14.60239258 6.51123047 14.66650391 C2.21693031 14.75865627 0.52911247 14.6019588 -3.02587891 11.93798828 C-4.97119141 9.22705078 -4.97119141 9.22705078 -4.90869141 5.53955078 C-3.45347523 0.39778697 -3.45347523 0.39778697 0 0 Z " fill="#68BDD9" transform="translate(478.97119140625,295.77294921875)"/>
<path d="M0 0 C10.22459016 -0.48688525 10.22459016 -0.48688525 13.6875 1.6875 C15.30624107 4.5395676 15.70718699 5.77837038 15 9 C13.125 11.8125 13.125 11.8125 10 14 C6.55177846 14.42115683 3.49547392 14.23303159 0 14 C0 9.38 0 4.76 0 0 Z " fill="#EC8436" transform="translate(16,296)"/>
<path d="M0 0 C2.3125 1.5625 2.3125 1.5625 4 4 C4.42213381 7.43737531 4.60856522 9.82090489 3 12.9375 C-0.24104443 14.65930485 -3.42422767 14.66300779 -7 14 C-9.68060724 11.82200662 -9.93500217 10.38998695 -10.5 7 C-10 4 -10 4 -7.8125 1.625 C-4.75367423 -0.14232156 -3.44653179 -0.70698088 0 0 Z " fill="#DFE1E5" transform="translate(399,339)"/>
<path d="M0 0 C3.4375 1 3.4375 1 5.375 2.75 C6.67120853 5.49491218 6.96237013 7.00074212 6.4375 10 C4.875 12.3125 4.875 12.3125 2.4375 14 C-1.02480815 14.42519574 -3.3972167 14.63902633 -6.5 12.9375 C-8.20152633 9.8347167 -7.98769574 7.46230815 -7.5625 4 C-5.30132583 0.38212133 -4.292718 0 0 0 Z " fill="#DEE1E5" transform="translate(127.5625,339)"/>
<path d="M0 0 C1.98 0 3.96 0 6 0 C6 4.29 6 8.58 6 13 C4.35 13 2.7 13 1 13 C-1.70238949 8.94641576 -1.22937614 6.81689896 -1 2 C-0.67 1.34 -0.34 0.68 0 0 Z " fill="#93CDE8" transform="translate(490,296)"/>
</svg>
