<?xml version="1.0" encoding="UTF-8"?>
<svg version="1.1" xmlns="http://www.w3.org/2000/svg" width="512" height="512">
<path d="M0 0 C1.11463369 -0.00507454 2.22926739 -0.01014909 3.37767786 -0.0153774 C4.60226239 -0.01587516 5.82684692 -0.01637292 7.08854008 -0.01688576 C9.04001323 -0.02345914 9.04001323 -0.02345914 11.03091007 -0.03016531 C14.64527745 -0.042121 18.25963147 -0.04777695 21.87401474 -0.05234647 C25.77130722 -0.05830652 29.66858378 -0.06991551 33.56586552 -0.08063698 C42.98072597 -0.10515397 52.39559169 -0.11978825 61.81047425 -0.13269705 C64.47066213 -0.13640986 67.13084948 -0.14038303 69.79103684 -0.14444971 C86.31734844 -0.16969001 102.84366087 -0.19173893 119.36998749 -0.20417786 C123.1976449 -0.20710747 127.02530229 -0.21006914 130.85295963 -0.21308327 C132.27994666 -0.21420234 132.27994666 -0.21420234 133.73576171 -0.21534403 C149.13651417 -0.22798966 164.53715097 -0.26120225 179.93784939 -0.3028851 C195.75708316 -0.34534889 211.5762578 -0.36887813 227.3955484 -0.37409842 C236.27432393 -0.37750778 245.15291881 -0.38920658 254.03163815 -0.42220116 C261.59562573 -0.45026415 269.15939563 -0.46117374 276.72343122 -0.4500057 C280.57932593 -0.4448347 284.43476522 -0.44760312 288.29059315 -0.47247124 C292.48128572 -0.49927201 296.67098523 -0.48685036 300.86173344 -0.47098732 C302.06624147 -0.48486941 303.27074951 -0.49875149 304.51175779 -0.51305425 C318.06392788 -0.38716697 328.49019391 4.51358088 338.21843815 13.71904564 C345.2893073 21.20906425 349.69449649 30.95861368 349.6442194 41.21513939 C349.64099674 42.37529564 349.63777409 43.53545189 349.63445377 44.73076439 C349.62607487 45.93732689 349.61769596 47.14388939 349.60906315 48.38701439 C349.60455143 49.60904564 349.60003971 50.83107689 349.59539127 52.09013939 C349.5836113 55.10581385 349.56716168 58.12138936 349.54656315 61.13701439 C350.18469944 61.12813194 350.82283573 61.1192495 351.48030949 61.11009789 C358.13137179 61.02149693 364.78226601 60.96122695 371.43377018 60.91728783 C373.91495926 60.89719198 376.3961011 60.86991055 378.87712955 60.83525658 C382.44674696 60.78665145 386.01573731 60.76402467 389.58562565 60.74638939 C390.69209446 60.72574425 391.79856327 60.70509911 392.93856144 60.68382835 C398.9461963 60.68208416 402.9504154 60.82691866 407.54656315 65.13701439 C410.13340184 68.78269637 410.92298759 71.25760616 410.9342432 75.70914268 C410.94910015 77.37244873 410.94910015 77.37244873 410.96425724 79.06935692 C410.95975559 80.27625175 410.95525394 81.48314659 410.95061588 82.726614 C410.96091076 84.64445953 410.96091076 84.64445953 410.97141361 86.60104942 C410.98933564 90.10111749 410.9881785 93.60093473 410.98247123 97.10103488 C410.97937787 100.02596987 410.98547347 102.95085679 410.99150997 105.87578493 C411.00555052 112.77759947 411.00399796 119.67929022 410.99260807 126.58110619 C410.9811278 133.69476363 410.99520176 140.80804402 411.02200454 147.92165178 C411.044176 154.03562316 411.05079568 160.1494763 411.04492813 166.26348501 C411.0415607 169.91228138 411.04395907 173.56083608 411.06117916 177.20959854 C411.07954815 181.27931456 411.06544652 185.34829905 411.04827213 189.41802025 C411.0579401 190.62289085 411.06760807 191.82776146 411.07756901 193.0691433 C411.02179158 199.37444857 410.87773719 203.39014303 406.54656315 208.13701439 C401.32396458 212.19331837 395.89316173 211.91098983 389.54656315 211.13701439 C384.96654986 208.96753441 382.6203521 206.72375985 380.54656315 202.13701439 C380.11595616 198.55052857 380.16783101 194.98813102 380.20598698 191.37993431 C380.2055489 190.29655785 380.20511082 189.21318138 380.20465946 188.09697533 C380.20674749 184.52029386 380.23007996 180.94408261 380.2535944 177.36748314 C380.25919028 174.88598448 380.26346042 172.40448251 380.26645756 169.92297935 C380.27790683 163.39466245 380.30737507 156.86654607 380.3405695 150.33830833 C380.37289061 143.67554569 380.38496254 137.01272471 380.40007877 130.34990501 C380.43224444 117.27883924 380.48501338 104.20797487 380.54656315 91.13701439 C370.31656315 91.13701439 360.08656315 91.13701439 349.54656315 91.13701439 C349.57019428 93.81417564 349.59382542 96.4913369 349.61817265 99.24962425 C349.84217315 124.94460175 350.03318785 150.63968935 350.19677544 176.33512306 C350.21389479 179.00671777 350.23113367 181.67831169 350.24846745 184.34990501 C350.2549207 185.34546827 350.2549207 185.34546827 350.26150431 186.36114392 C350.32592677 196.21755756 350.40657795 206.07376661 350.49651432 215.92998314 C350.97241916 268.65905193 351.18910191 321.26750973 348.2457819 373.93388939 C348.16509319 375.40333803 348.16509319 375.40333803 348.0827744 376.9024725 C347.77644266 382.45688885 347.45255015 388.00978359 347.09986615 393.56145763 C346.99543381 395.20882424 346.89379671 396.85637112 346.79533839 398.50410557 C345.72416734 416.08828475 342.78850725 429.35223778 329.9879694 442.12920189 C327.54656315 444.13701439 327.54656315 444.13701439 323.94158268 445.49931908 C322.00303914 446.4881814 322.00303914 446.4881814 320.54656315 448.13701439 C319.50603081 452.18877775 319.68899333 456.18686687 319.7848444 460.34795189 C319.78203968 461.54884453 319.77923496 462.74973717 319.77634525 463.98702049 C319.77105804 467.82958996 319.81173172 471.66975958 319.85906315 475.51201439 C319.89056248 479.34675699 319.91183956 483.1807086 319.90964603 487.01558495 C319.9097759 489.40188753 319.9300084 491.78829402 319.97266483 494.17421532 C319.98882041 500.28634368 319.97554567 504.479948 315.54656315 509.13701439 C311.46894551 512.14863015 308.48830052 512.51935128 303.46477604 512.54106712 C302.77142658 512.54793037 302.07807713 512.55479362 301.36371708 512.56186485 C299.08200687 512.58009885 296.80098652 512.57630043 294.5192194 512.57060814 C292.9264793 512.5751717 291.33374118 512.5804778 289.7410059 512.58649254 C286.40633478 512.59541701 283.07190323 512.59300832 279.73723698 512.58305931 C275.47224344 512.57157214 271.20807818 512.59177991 266.94319344 512.62097645 C263.65482204 512.63935821 260.36664839 512.63904208 257.07823849 512.63333893 C255.50622172 512.63318594 253.93419135 512.63921136 252.36222363 512.6516304 C250.16020839 512.66657643 247.95971375 512.65583915 245.75774479 512.63872337 C244.50707722 512.63855721 243.25640965 512.63839104 241.96784306 512.63821983 C237.8305113 512.03211532 235.74552461 510.80337148 232.54656315 508.13701439 C222.92887112 492.10752767 229.54656315 470.83044758 229.54656315 452.13701439 C180.04656315 452.13701439 130.54656315 452.13701439 79.54656315 452.13701439 C79.54656315 468.96701439 79.54656315 485.79701439 79.54656315 503.13701439 C74.74114985 510.34513434 74.74114985 510.34513434 70.54656315 512.13701439 C67.25226688 512.52469444 67.25226688 512.52469444 63.46477604 512.54106712 C62.77142658 512.54793037 62.07807713 512.55479362 61.36371708 512.56186485 C59.08200687 512.58009885 56.80098652 512.57630043 54.5192194 512.57060814 C52.9264793 512.5751717 51.33374118 512.5804778 49.7410059 512.58649254 C46.40633478 512.59541701 43.07190323 512.59300832 39.73723698 512.58305931 C35.47224344 512.57157214 31.20807818 512.59177991 26.94319344 512.62097645 C23.65482204 512.63935821 20.36664839 512.63904208 17.07823849 512.63333893 C15.50622172 512.63318594 13.93419135 512.63921136 12.36222363 512.6516304 C10.16020839 512.66657643 7.95971375 512.65583915 5.75774479 512.63872337 C4.50707722 512.63855721 3.25640965 512.63839104 1.96784306 512.63821983 C-3.15111748 511.88831016 -6.16898246 509.800544 -9.31033993 505.7320919 C-10.60510748 502.79268923 -10.7971759 500.81742324 -10.74298763 497.61577415 C-10.73373257 496.5343766 -10.7244775 495.45297905 -10.71494198 494.33881187 C-10.69309841 493.18038277 -10.67125484 492.02195366 -10.64874935 490.82842064 C-10.64178074 488.36553437 -10.63662825 485.9026424 -10.63312435 483.43974876 C-10.6124713 479.56361378 -10.57826004 475.68916765 -10.5120306 471.81352806 C-10.45490857 468.06751292 -10.4539263 464.32478976 -10.46124935 460.57842064 C-10.4272604 459.42201576 -10.39327145 458.26561089 -10.35825253 457.07416344 C-10.30333776 451.00744472 -10.30333776 451.00744472 -13.4386816 446.10124779 C-15.71798715 444.57692178 -17.99374434 443.34082177 -20.45343685 442.13701439 C-29.79658106 434.74098747 -34.45028809 424.68132553 -36.45343685 413.13701439 C-36.95008068 408.72957665 -37.24072156 404.31647318 -37.51496029 399.89018822 C-37.55699109 399.22984007 -37.59902189 398.56949192 -37.64232635 397.88913321 C-37.97686217 392.60474444 -38.27558324 387.3186962 -38.56281185 382.03154564 C-38.60729049 381.22115341 -38.65176912 380.41076119 -38.6975956 379.57581162 C-41.55575738 326.93087925 -40.91366772 274.1755335 -40.7415452 221.47233784 C-40.70937015 211.50909065 -40.68783549 201.54585891 -40.67316341 191.58257103 C-40.67211252 190.87098682 -40.67106163 190.15940261 -40.66997889 189.42625525 C-40.66475507 185.85299683 -40.65970112 182.27973821 -40.65473127 178.70647943 C-40.61391679 149.51658082 -40.54289224 120.32680439 -40.45343685 91.13701439 C-50.68343685 91.13701439 -60.91343685 91.13701439 -71.45343685 91.13701439 C-71.43248959 94.43782005 -71.41154232 97.73862572 -71.38996029 101.1394558 C-71.32368888 112.04385105 -71.27950077 122.94825518 -71.24618816 133.85279846 C-71.22531134 140.46440977 -71.19699119 147.07581478 -71.15167904 153.68730736 C-71.10822584 160.06746893 -71.08430046 166.44743205 -71.07392788 172.82773018 C-71.06653566 175.26221275 -71.05210051 177.69668443 -71.03051662 180.13108253 C-71.0014907 183.54036263 -70.99748066 186.94882207 -70.99933529 190.3582058 C-70.97776363 191.86872017 -70.97776363 191.86872017 -70.95575619 193.40974998 C-70.99051689 199.31295704 -71.54079696 202.63109805 -75.45343685 207.13701439 C-80.67603542 211.19331837 -86.10683827 210.91098983 -92.45343685 210.13701439 C-97.07217024 207.94919331 -99.16887148 205.63550677 -101.45343685 201.13701439 C-101.83375359 198.49265957 -101.83375359 198.49265957 -101.84111691 195.60284996 C-101.85102154 194.50239342 -101.86092617 193.40193687 -101.87113094 192.26813316 C-101.8666293 191.07058907 -101.86212765 189.87304497 -101.85748959 188.63921165 C-101.86435284 187.37040154 -101.87121609 186.10159142 -101.87828732 184.7943325 C-101.89620852 181.32112251 -101.89505236 177.84816531 -101.88934493 174.37492299 C-101.88625145 171.47235581 -101.89234731 168.56983708 -101.89838368 165.6672768 C-101.91242396 158.81819966 -101.91087189 151.96924727 -101.89948177 145.12016869 C-101.88800155 138.06104172 -101.90207543 131.00229471 -101.92887825 123.94321781 C-101.95105025 117.87595497 -101.95766926 111.80881128 -101.95180184 105.74151081 C-101.94843453 102.12065941 -101.95083192 98.50005154 -101.96805286 94.87923431 C-101.98642295 90.84064947 -101.97231968 86.80280172 -101.95514584 82.76421165 C-101.9648138 81.56869179 -101.97448177 80.37317192 -101.98444271 79.14142418 C-101.93003238 73.03721464 -101.87216545 68.78268398 -97.45343685 64.13701439 C-93.95851047 61.45568079 -91.47913354 60.76456405 -87.1123724 60.79643822 C-85.55132023 60.79677811 -85.55132023 60.79677811 -83.95873165 60.79712486 C-82.84710155 60.81260872 -81.73547146 60.82809258 -80.5901556 60.84404564 C-78.8694762 60.8504129 -78.8694762 60.8504129 -77.11403561 60.8569088 C-73.45609564 60.87367955 -69.79870985 60.91133003 -66.14093685 60.94951439 C-63.65852294 60.96456324 -61.17610038 60.9782513 -58.69367123 60.99053001 C-52.61340454 61.0235779 -46.53346029 61.07376199 -40.45343685 61.13701439 C-40.46423779 60.38900063 -40.47503872 59.64098686 -40.48616695 58.87030602 C-40.52929112 55.45013121 -40.55595104 52.03001384 -40.5823431 48.60967064 C-40.5996246 47.43295799 -40.61690609 46.25624535 -40.63471127 45.04387474 C-40.71610558 30.97745666 -36.54975943 21.69312812 -26.8714056 11.46513939 C-19.63623023 4.63485218 -9.95710617 0.02408513 0 0 Z " fill="#465A60" transform="translate(101.45343685150146,-0.13701438903808594)"/>
<path d="M0 0 C1.32161133 0.2333606 1.32161133 0.2333606 2.66992188 0.47143555 C33.77402195 5.91865102 64.96817459 9.94274787 96.375 13.1875 C97.11890991 13.26631409 97.86281982 13.34512817 98.62927246 13.42633057 C129.27949341 16.64517506 159.88799541 17.35343611 190.68139648 17.31567383 C194.74921791 17.31106197 198.81673885 17.31791512 202.88452148 17.33618164 C255.94300671 17.5719469 307.92390668 13.10440096 360.28735352 4.72973633 C361.91224449 4.47166199 361.91224449 4.47166199 363.56996155 4.20837402 C365.59106758 3.88657822 367.61158582 3.56105594 369.6313324 3.23083496 C376.40320198 2.15280117 383.16097557 1.48717044 390 1 C390.88386847 6.84110467 391.03285695 12.27404412 390.70214844 18.16308594 C390.65834549 19.04230713 390.61454254 19.92152832 390.56941223 20.82739258 C390.4234642 23.71349005 390.26697783 26.59889212 390.109375 29.484375 C390.00274798 31.50684136 389.89640913 33.52932293 389.79034424 35.55181885 C389.56649483 39.78515256 389.33703429 44.01813874 389.10400391 48.25097656 C388.8076475 53.64768653 388.52846371 59.0451293 388.25396347 64.44298935 C388.03905889 68.61986468 387.81327249 72.79610109 387.58448029 76.97223663 C387.47714517 78.96053753 387.37348758 80.94904078 387.27373505 82.93773651 C386.32074914 101.76044192 384.30465295 116.15447164 370.44140625 129.9921875 C368 132 368 132 364.39501953 133.36230469 C362.45647599 134.35116701 362.45647599 134.35116701 361 136 C359.95946766 140.05176336 360.14243019 144.04985248 360.23828125 148.2109375 C360.23547653 149.41183014 360.23267181 150.61272278 360.2297821 151.8500061 C360.22449489 155.69257557 360.26516857 159.5327452 360.3125 163.375 C360.34399933 167.2097426 360.36527641 171.04369421 360.36308289 174.87857056 C360.36321276 177.26487314 360.38344525 179.65127963 360.42610168 182.03720093 C360.44225726 188.14932929 360.42898252 192.34293361 356 197 C351.92238236 200.01161576 348.94173737 200.38233689 343.91821289 200.40405273 C342.87818871 200.41434761 342.87818871 200.41434761 341.81715393 200.42485046 C339.53544372 200.44308446 337.25442337 200.43928604 334.97265625 200.43359375 C333.37991615 200.43815731 331.78717803 200.44346341 330.19444275 200.44947815 C326.85977163 200.45840262 323.52534008 200.45599393 320.19067383 200.44604492 C315.9256803 200.43455775 311.66151503 200.45476552 307.39663029 200.48396206 C304.10825889 200.50234382 300.82008524 200.50202769 297.53167534 200.49632454 C295.95965857 200.49617156 294.3876282 200.50219697 292.81566048 200.51461601 C290.61364524 200.52956205 288.41315061 200.51882476 286.21118164 200.50170898 C284.96051407 200.50154282 283.7098465 200.50137665 282.42127991 200.50120544 C278.28394815 199.89510093 276.19896146 198.66635709 273 196 C263.38230797 179.97051328 270 158.69343319 270 140 C220.5 140 171 140 120 140 C120 156.83 120 173.66 120 191 C115.1945867 198.20811995 115.1945867 198.20811995 111 200 C107.70570374 200.38768005 107.70570374 200.38768005 103.91821289 200.40405273 C102.87818871 200.41434761 102.87818871 200.41434761 101.81715393 200.42485046 C99.53544372 200.44308446 97.25442337 200.43928604 94.97265625 200.43359375 C93.37991615 200.43815731 91.78717803 200.44346341 90.19444275 200.44947815 C86.85977163 200.45840262 83.52534008 200.45599393 80.19067383 200.44604492 C75.9256803 200.43455775 71.66151503 200.45476552 67.39663029 200.48396206 C64.10825889 200.50234382 60.82008524 200.50202769 57.53167534 200.49632454 C55.95965857 200.49617156 54.3876282 200.50219697 52.81566048 200.51461601 C50.61364524 200.52956205 48.41315061 200.51882476 46.21118164 200.50170898 C44.96051407 200.50154282 43.7098465 200.50137665 42.42127991 200.50120544 C37.30231937 199.75129577 34.28445439 197.66352961 31.14309692 193.59507751 C29.84832937 190.65567484 29.65626095 188.68040885 29.71044922 185.47875977 C29.71970428 184.39736221 29.72895935 183.31596466 29.73849487 182.20179749 C29.76033844 181.04336838 29.78218201 179.88493927 29.8046875 178.69140625 C29.81165611 176.22851998 29.8168086 173.76562801 29.8203125 171.30273438 C29.84096555 167.42659939 29.87517681 163.55215326 29.94140625 159.67651367 C29.99852828 155.93049853 29.99951055 152.18777537 29.9921875 148.44140625 C30.02617645 147.28500137 30.06016541 146.1285965 30.09518433 144.93714905 C30.15009909 138.87043033 30.15009909 138.87043033 27.01475525 133.9642334 C24.7354497 132.4399074 22.45969252 131.20380738 20 130 C10.73060479 122.66235274 5.85049219 112.55970804 4 101 C3.48839605 95.38120015 3.20678457 89.75560221 2.9296875 84.12109375 C2.84335245 82.46506749 2.75652 80.8090671 2.66921997 79.15309143 C2.4879766 75.68277598 2.3120814 72.21224336 2.14013672 68.74145508 C1.92312867 64.36750601 1.69394185 59.99430202 1.46100998 55.62117577 C0.47730652 37.06653252 -0.31712339 18.58695432 0 0 Z " fill="#EEEA37" transform="translate(61,312)"/>
<path d="M0 0 C40.63125 -0.0825 81.2625 -0.165 123.125 -0.25 C135.9655127 -0.28641602 148.80602539 -0.32283203 162.03564453 -0.36035156 C177.68725586 -0.37841797 177.68725586 -0.37841797 185.00900269 -0.3817749 C190.13463136 -0.38550911 195.26013407 -0.40019884 200.38571167 -0.42230225 C206.91918 -0.45043539 213.45245502 -0.4579738 219.98599601 -0.4522891 C222.38661854 -0.45347823 224.78724928 -0.46143924 227.18782258 -0.47686052 C230.42598729 -0.49669986 233.66321229 -0.49198169 236.90139771 -0.48101807 C237.84471388 -0.49266872 238.78803005 -0.50431938 239.75993156 -0.51632309 C245.31762008 -0.46560367 248.68527814 0.14758276 253 4 C255.74093614 7.55690951 256.37643437 10.12451456 256.38768005 14.5721283 C256.402537 16.23543434 256.402537 16.23543434 256.41769409 17.93234253 C256.41319244 19.13923737 256.4086908 20.3461322 256.40405273 21.58959961 C256.41434761 23.50744514 256.41434761 23.50744514 256.42485046 25.46403503 C256.44277249 28.9641031 256.44161536 32.46392034 256.43590808 35.96402049 C256.43281472 38.88895548 256.43891032 41.8138424 256.44494683 44.73877054 C256.45898737 51.64058508 256.45743481 58.54227583 256.44604492 65.4440918 C256.43456465 72.55774924 256.44863861 79.67102963 256.4754414 86.78463739 C256.49761285 92.89860877 256.50423253 99.01246191 256.49836498 105.12647063 C256.49499755 108.77526699 256.49739592 112.42382169 256.51461601 116.07258415 C256.532985 120.14230017 256.51888337 124.21128466 256.50170898 128.28100586 C256.51137695 129.48587646 256.52104492 130.69074707 256.53100586 131.93212891 C256.47522843 138.23743418 256.33117404 142.25312864 252 147 C246.77740143 151.05630398 241.34659858 150.77397544 235 150 C230.41998671 147.83052002 228.07378896 145.58674546 226 141 C225.56939301 137.41351418 225.62126787 133.85111663 225.65942383 130.24291992 C225.65898575 129.15954346 225.65854767 128.07616699 225.65809631 126.95996094 C225.66018434 123.38327947 225.68351681 119.80706822 225.70703125 116.23046875 C225.71262713 113.74897009 225.71689727 111.26746812 225.71989441 108.78596497 C225.73134369 102.25764806 225.76081192 95.72953168 225.79400635 89.20129395 C225.82632746 82.5385313 225.83839939 75.87571032 225.85351562 69.21289062 C225.88568129 56.14182485 225.93845024 43.07096048 226 30 C215.77 30 205.54 30 195 30 C195 103.26 195 176.52 195 252 C167.66982537 256.4490982 140.47916341 260.76625359 113 264 C112.27621155 264.08624634 111.5524231 264.17249268 110.80670166 264.26135254 C73.94225075 268.6312747 37.18364266 269 0 269 C0 180.23 0 91.46 0 0 Z " fill="#2F4247" transform="translate(256,61)"/>
<path d="M0 0 C1.11463369 -0.00507454 2.22926739 -0.01014909 3.37767786 -0.0153774 C4.60226239 -0.01587516 5.82684692 -0.01637292 7.08854008 -0.01688576 C8.38952218 -0.02126801 9.69050428 -0.02565027 11.03091007 -0.03016531 C14.64527745 -0.042121 18.25963147 -0.04777695 21.87401474 -0.05234647 C25.77130722 -0.05830652 29.66858378 -0.06991551 33.56586552 -0.08063698 C42.98072597 -0.10515397 52.39559169 -0.11978825 61.81047425 -0.13269705 C64.47066213 -0.13640986 67.13084948 -0.14038303 69.79103684 -0.14444971 C86.31734844 -0.16969001 102.84366087 -0.19173893 119.36998749 -0.20417786 C123.1976449 -0.20710747 127.02530229 -0.21006914 130.85295963 -0.21308327 C132.27994666 -0.21420234 132.27994666 -0.21420234 133.73576171 -0.21534403 C149.13651417 -0.22798966 164.53715097 -0.26120225 179.93784939 -0.3028851 C195.75708316 -0.34534889 211.5762578 -0.36887813 227.3955484 -0.37409842 C236.27432393 -0.37750778 245.15291881 -0.38920658 254.03163815 -0.42220116 C261.59562573 -0.45026415 269.15939563 -0.46117374 276.72343122 -0.4500057 C280.57932593 -0.4448347 284.43476522 -0.44760312 288.29059315 -0.47247124 C292.48128572 -0.49927201 296.67098523 -0.48685036 300.86173344 -0.47098732 C302.06624147 -0.48486941 303.27074951 -0.49875149 304.51175779 -0.51305425 C318.06392788 -0.38716697 328.49019391 4.51358088 338.21843815 13.71904564 C351.33190692 27.60985921 349.54656315 42.24827446 349.54656315 61.13701439 C220.84656315 61.13701439 92.14656315 61.13701439 -40.45343685 61.13701439 C-40.45343685 25.81849587 -40.45343685 25.81849587 -26.8714056 11.46513939 C-19.63623023 4.63485218 -9.95710617 0.02408513 0 0 Z " fill="#EEEA37" transform="translate(101.45343685150146,-0.13701438903808594)"/>
<path d="M0 0 C1.84513184 -0.00810448 1.84513184 -0.00810448 3.72753906 -0.01637268 C7.08521841 -0.02670549 10.44190532 -0.01919566 13.79949689 -0.00266147 C17.32140789 0.01124095 20.84329054 0.00472318 24.36521912 0.00120544 C30.27725481 -0.00149224 36.18908696 0.01194192 42.10107422 0.03515625 C48.92730624 0.06177566 55.75319834 0.06350761 62.5794645 0.05176789 C69.15919549 0.04097413 75.73880403 0.04718887 82.31852531 0.06132317 C85.1130559 0.06706792 87.90749642 0.06701227 90.70202827 0.06225777 C94.60616967 0.05658214 98.5099734 0.07584239 102.4140625 0.09765625 C104.14652473 0.09090378 104.14652473 0.09090378 105.91398621 0.08401489 C111.53714282 0.13622616 115.84665689 0.20776103 120.64233398 3.50170898 C125.3654799 8.73546527 125.80999588 12.14202905 125.84545898 19.01733398 C125.85115906 19.8659198 125.85685913 20.71450562 125.86273193 21.58880615 C125.87218797 23.3877233 125.87871831 25.18665782 125.88256836 26.9855957 C125.89224659 29.72695568 125.9232524 32.46755718 125.95483398 35.20874023 C125.96136689 36.9574337 125.96661623 38.70613253 125.97045898 40.45483398 C125.98280579 41.27066956 125.99515259 42.08650513 126.00787354 42.92706299 C125.988719 47.86649013 125.36107655 51.21502295 122.64233398 55.50170898 C118.38089357 59.44354137 115.27451148 60.62218894 109.54522705 60.64888 C108.49103577 60.65603531 107.43684448 60.66319061 106.35070801 60.67056274 C104.61609314 60.6745961 104.61609314 60.6745961 102.84643555 60.67871094 C101.62829163 60.68528214 100.41014771 60.69185333 99.15509033 60.69862366 C95.11437739 60.71837255 91.07370416 60.73002465 87.03295898 60.73999023 C85.64041881 60.7440387 84.24787883 60.74815565 82.85533905 60.75234032 C76.3119532 60.77138808 69.76857861 60.78561948 63.22517037 60.79395229 C55.67941042 60.80372093 48.1339441 60.83003212 40.58828759 60.87045318 C34.75122084 60.90064522 28.9142381 60.91542411 23.07709479 60.9187333 C19.59307555 60.92108046 16.10937015 60.9299966 12.62543488 60.95519447 C8.73546525 60.98287471 4.84587981 60.97863458 0.95581055 60.97167969 C-0.19250244 60.98448975 -1.34081543 60.9972998 -2.52392578 61.01049805 C-9.03758388 60.96804765 -13.07688446 60.41745548 -18.35766602 56.50170898 C-23.01327522 51.35603566 -23.53334053 48.01111965 -23.59594727 41.23999023 C-23.60401901 40.41597214 -23.61209076 39.59195404 -23.6204071 38.7429657 C-23.63425124 36.99533188 -23.64497192 35.24767098 -23.65283203 33.5 C-23.66998772 30.84183508 -23.7138623 28.18493268 -23.75805664 25.52709961 C-23.76818888 23.82723895 -23.77670332 22.12736772 -23.78344727 20.42749023 C-23.8097094 19.24428947 -23.8097094 19.24428947 -23.83650208 18.03718567 C-23.81534479 12.5857804 -22.8501476 8.75317556 -19.35766602 4.50170898 C-13.13958203 -0.18217615 -7.60513748 -0.06377223 0 0 Z " fill="#596C75" transform="translate(204.357666015625,360.498291015625)"/>
<path d="M0 0 C0.87166557 0.31593864 0.87166557 0.31593864 1.76094055 0.63825989 C10.92648933 3.57253701 19.83766949 3.4770475 29.35546875 3.51171875 C31.11095919 3.52859406 32.86643776 3.54674807 34.62190247 3.56611633 C39.20680021 3.61331312 43.7916498 3.64331756 48.37670898 3.66955566 C53.0695954 3.69951546 57.76231634 3.74599221 62.45507812 3.79101562 C71.63663164 3.87670306 80.81821954 3.94420074 90 4 C90.10156178 11.15319672 90.17153366 18.30620695 90.21972656 25.45996094 C90.23982071 27.89264881 90.26710088 30.32528851 90.30175781 32.7578125 C90.3503706 36.25793355 90.37299139 39.75741502 90.390625 43.2578125 C90.41127014 44.34240753 90.43191528 45.42700256 90.45318604 46.54446411 C90.45495131 52.50773808 90.26202545 56.4296462 86 61 C81.92543455 64.01481959 78.94023084 64.3823434 73.91821289 64.40405273 C73.22486343 64.41091599 72.53151398 64.41777924 71.81715393 64.42485046 C69.53544372 64.44308446 67.25442337 64.43928604 64.97265625 64.43359375 C63.37991615 64.43815731 61.78717803 64.44346341 60.19444275 64.44947815 C56.85977163 64.45840262 53.52534008 64.45599393 50.19067383 64.44604492 C45.9256803 64.43455775 41.66151503 64.45476552 37.39663029 64.48396206 C34.10825889 64.50234382 30.82008524 64.50202769 27.53167534 64.49632454 C25.95965857 64.49617156 24.3876282 64.50219697 22.81566048 64.51461601 C20.61364524 64.52956205 18.41315061 64.51882476 16.21118164 64.50170898 C14.96051407 64.50154282 13.7098465 64.50137665 12.42127991 64.50120544 C7.30558427 63.75177407 4.28730496 61.6659571 1.14628601 57.60102844 C-0.15712983 54.64345796 -0.36280852 52.60723568 -0.34057617 49.38354492 C-0.34034958 48.28278122 -0.34012299 47.18201752 -0.33988953 46.04789734 C-0.32440567 44.8706459 -0.30892181 43.69339447 -0.29296875 42.48046875 C-0.28872391 41.26676102 -0.28447906 40.05305328 -0.28010559 38.80256653 C-0.26332908 34.9306509 -0.22567733 31.05925801 -0.1875 27.1875 C-0.1724519 24.5605544 -0.15876371 21.93360063 -0.14648438 19.30664062 C-0.11342881 12.87091576 -0.06323883 6.43549523 0 0 Z " fill="#465A60" transform="translate(91,448)"/>
<path d="M0 0 C0.10151824 7.72286742 0.17151568 15.44556239 0.21972656 23.16894531 C0.23982715 25.79563833 0.26711204 28.42228669 0.30175781 31.04882812 C0.35034164 34.82693512 0.37298509 38.60444984 0.390625 42.3828125 C0.41127014 43.55490265 0.43191528 44.7269928 0.45318604 45.93460083 C0.45486989 52.06917863 0.45198608 56.33235006 -4 61 C-8.07809684 64.01109782 -11.05804219 64.38233594 -16.08178711 64.40405273 C-16.77513657 64.41091599 -17.46848602 64.41777924 -18.18284607 64.42485046 C-20.46455628 64.44308446 -22.74557663 64.43928604 -25.02734375 64.43359375 C-26.62008385 64.43815731 -28.21282197 64.44346341 -29.80555725 64.44947815 C-33.14022837 64.45840262 -36.47465992 64.45599393 -39.80932617 64.44604492 C-44.0743197 64.43455775 -48.33848497 64.45476552 -52.60336971 64.48396206 C-55.89174111 64.50234382 -59.17991476 64.50202769 -62.46832466 64.49632454 C-64.04034143 64.49617156 -65.6123718 64.50219697 -67.18433952 64.51461601 C-69.38635476 64.52956205 -71.58684939 64.51882476 -73.78881836 64.50170898 C-75.03948593 64.50154282 -76.2901535 64.50137665 -77.57872009 64.50120544 C-82.46141883 63.78590729 -85.55592446 61.57281758 -88.85668945 57.9777832 C-90.69616123 53.18682928 -90.36519513 48.43877289 -90.29296875 43.35546875 C-90.28872391 42.2305452 -90.28447906 41.10562164 -90.28010559 39.9466095 C-90.2633369 36.35999438 -90.22568688 32.77394479 -90.1875 29.1875 C-90.17245087 26.75326333 -90.15876287 24.31901784 -90.14648438 21.88476562 C-90.11343925 15.92298471 -90.06325728 9.96153277 -90 4 C-89.03026749 3.99413376 -88.06053497 3.98826752 -87.06141663 3.98222351 C-77.89590223 3.92486203 -68.73062203 3.85203084 -59.56534672 3.76428509 C-54.85404758 3.71967137 -50.14283312 3.68039566 -45.43139648 3.65356445 C-40.87951185 3.62744139 -36.32795467 3.58697602 -31.77627373 3.53681374 C-30.04490691 3.52020568 -28.31348354 3.50865383 -26.58204842 3.50238609 C-17.54091404 3.46636367 -8.40638919 0 0 0 Z " fill="#465A61" transform="translate(421,448)"/>
<path d="M0 0 C7.2963677 -0.09190666 14.59072135 -0.17152676 21.88720703 -0.21972656 C24.36839611 -0.23982241 26.84953795 -0.26710384 29.33056641 -0.30175781 C32.90018382 -0.35036294 36.46917416 -0.37298972 40.0390625 -0.390625 C41.14553131 -0.41127014 42.25200012 -0.43191528 43.39199829 -0.45318604 C49.39963315 -0.45493023 53.40385225 -0.31009572 58 4 C60.58683869 7.64568198 61.37642445 10.12059177 61.38768005 14.5721283 C61.39758469 15.68099899 61.40748932 16.78986969 61.41769409 17.93234253 C61.41094162 19.74268478 61.41094162 19.74268478 61.40405273 21.58959961 C61.41091599 22.8681633 61.41777924 24.14672699 61.42485046 25.46403503 C61.44277249 28.9641031 61.44161536 32.46392034 61.43590808 35.96402049 C61.43281472 38.88895548 61.43891032 41.8138424 61.44494683 44.73877054 C61.45898737 51.64058508 61.45743481 58.54227583 61.44604492 65.4440918 C61.43456465 72.55774924 61.44863861 79.67102963 61.4754414 86.78463739 C61.49761285 92.89860877 61.50423253 99.01246191 61.49836498 105.12647063 C61.49499755 108.77526699 61.49739592 112.42382169 61.51461601 116.07258415 C61.532985 120.14230017 61.51888337 124.21128466 61.50170898 128.28100586 C61.51137695 129.48587646 61.52104492 130.69074707 61.53100586 131.93212891 C61.47522843 138.23743418 61.33117404 142.25312864 57 147 C51.77740143 151.05630398 46.34659858 150.77397544 40 150 C35.41998671 147.83052002 33.07378896 145.58674546 31 141 C30.56939301 137.41351418 30.62126787 133.85111663 30.65942383 130.24291992 C30.65876671 128.61785522 30.65876671 128.61785522 30.65809631 126.95996094 C30.66018434 123.38327947 30.68351681 119.80706822 30.70703125 116.23046875 C30.71262713 113.74897009 30.71689727 111.26746812 30.71989441 108.78596497 C30.73134369 102.25764806 30.76081192 95.72953168 30.79400635 89.20129395 C30.82632746 82.5385313 30.83839939 75.87571032 30.85351562 69.21289062 C30.88568129 56.14182485 30.93845024 43.07096048 31 30 C20.77 30 10.54 30 0 30 C0 20.1 0 10.2 0 0 Z " fill="#465A61" transform="translate(451,61)"/>
<path d="M0 0 C1.56105217 0.00033989 1.56105217 0.00033989 3.15364075 0.00068665 C4.26527084 0.0161705 5.37690094 0.03165436 6.5222168 0.04760742 C8.24289619 0.05397469 8.24289619 0.05397469 9.99833679 0.06047058 C13.65627676 0.07724134 17.31366254 0.11489182 20.97143555 0.15307617 C23.45384946 0.16812503 25.93627202 0.18181308 28.41870117 0.1940918 C34.49916373 0.22458559 40.57843049 0.28331296 46.65893555 0.34057617 C46.65893555 10.24057617 46.65893555 20.14057617 46.65893555 30.34057617 C36.42893555 30.34057617 26.19893555 30.34057617 15.65893555 30.34057617 C15.67988281 33.64138184 15.70083008 36.9421875 15.72241211 40.34301758 C15.78868352 51.24741283 15.83287163 62.15181697 15.86618423 73.05636024 C15.88706106 79.66797155 15.9153812 86.27937656 15.96069336 92.89086914 C16.00414656 99.27103072 16.02807194 105.65099383 16.03844452 112.03129196 C16.04583674 114.46577453 16.06027188 116.90024621 16.08185577 119.33464432 C16.1108817 122.74392441 16.11489174 126.15238385 16.11303711 129.56176758 C16.13460876 131.07228195 16.13460876 131.07228195 16.15661621 132.61331177 C16.12185551 138.51651882 15.57157544 141.83465983 11.65893555 146.34057617 C6.43633697 150.39688015 1.00553413 150.11455161 -5.34106445 149.34057617 C-9.95979785 147.15275509 -12.05649908 144.83906855 -14.34106445 140.34057617 C-14.72138119 137.69622135 -14.72138119 137.69622135 -14.72874451 134.80641174 C-14.73864914 133.7059552 -14.74855377 132.60549866 -14.75875854 131.47169495 C-14.7542569 130.27415085 -14.74975525 129.07660675 -14.74511719 127.84277344 C-14.75198044 126.57396332 -14.75884369 125.3051532 -14.76591492 123.99789429 C-14.78383612 120.5246843 -14.78267997 117.05172709 -14.77697253 113.57848477 C-14.77387905 110.6759176 -14.77997491 107.77339886 -14.78601128 104.87083858 C-14.80005156 98.02176144 -14.79849949 91.17280905 -14.78710938 84.32373047 C-14.77562915 77.2646035 -14.78970303 70.2058565 -14.81650585 63.1467796 C-14.83867785 57.07951676 -14.84529686 51.01237306 -14.83942944 44.94507259 C-14.83606213 41.32422119 -14.83845952 37.70361332 -14.85568047 34.0827961 C-14.87405055 30.04421125 -14.85994728 26.00636351 -14.84277344 21.96777344 C-14.85244141 20.77225357 -14.86210937 19.5767337 -14.87207031 18.34498596 C-14.81765998 12.24077642 -14.75979305 7.98624577 -10.34106445 3.34057617 C-6.84613808 0.65924258 -4.36676114 -0.03187417 0 0 Z " fill="#596B75" transform="translate(14.341064453125,60.659423828125)"/>
<path d="M0 0 C8.10343555 -0.06298007 16.20598031 -0.1230766 24.30944824 -0.15525055 C28.08335891 -0.1710662 31.85706613 -0.19218725 35.63085938 -0.22631836 C39.26835002 -0.25900935 42.90564385 -0.2768734 46.54327011 -0.28463173 C47.92830374 -0.29015785 49.31332709 -0.30094905 50.69827652 -0.31719017 C52.64395821 -0.33909128 54.58983961 -0.34022648 56.53564453 -0.34057617 C57.64150909 -0.34723801 58.74737366 -0.35389984 59.88674927 -0.36076355 C64.7953108 0.20804065 68.01806271 1.91190732 71.3125 5.5625 C74.31108359 9.8937874 74.17662604 13.37821725 74.203125 18.515625 C74.20882507 19.36421082 74.21452515 20.21279663 74.22039795 21.08709717 C74.22985398 22.88601432 74.23638432 24.68494884 74.24023438 26.48388672 C74.24991261 29.2252467 74.28091841 31.9658482 74.3125 34.70703125 C74.3190329 36.45572472 74.32428224 38.20442355 74.328125 39.953125 C74.3404718 40.76896057 74.3528186 41.58479614 74.36553955 42.425354 C74.34638502 47.36478114 73.71874256 50.71331397 71 55 C66.36127367 59.29082185 63.08665489 60.12592147 56.8762207 60.11352539 C55.61513992 60.11344986 54.35405914 60.11337433 53.05476379 60.11329651 C51.67843588 60.10818989 50.30210837 60.10297389 48.92578125 60.09765625 C47.51759389 60.09579086 46.10940589 60.09436753 44.70121765 60.09336853 C40.9973267 60.08955288 37.29347505 60.07973072 33.58959961 60.06866455 C29.80908754 60.05842997 26.02856892 60.05381172 22.24804688 60.04882812 C14.83199656 60.03863844 7.41605411 60.01906441 0 60 C0 40.2 0 20.4 0 0 Z " fill="#465A60" transform="translate(256,361)"/>
<path d="M0 0 C0.75204712 -0.00058411 1.50409424 -0.00116821 2.27893066 -0.00177002 C4.74120793 0.00099561 7.20224339 0.03201307 9.66430664 0.06347656 C11.38065429 0.07094442 13.0970105 0.07663478 14.81336975 0.08062744 C19.31311925 0.09584099 23.81234567 0.13508532 28.31188965 0.17944336 C32.91040981 0.22048888 37.50901515 0.23865821 42.10766602 0.25878906 C51.11766044 0.30158421 60.12726803 0.36978311 69.13696289 0.45410156 C69.27837682 10.51020349 68.86600848 20.42972471 68.13696289 30.45410156 C58.34877038 30.54693102 48.56068322 30.61793215 38.77213955 30.66135025 C34.22651517 30.68219268 29.68119279 30.71044885 25.13574219 30.75585938 C20.74611012 30.79943697 16.35676786 30.82326381 11.96693611 30.83361053 C10.29523217 30.84098059 8.62354343 30.85537269 6.95196342 30.87702179 C4.60369927 30.90621524 2.25662061 30.91005108 -0.09179688 30.90820312 C-1.12003067 30.92977478 -1.12003067 30.92977478 -2.16903687 30.95178223 C-7.53320922 30.90634112 -10.52186302 29.36991686 -14.86303711 26.45410156 C-17.70199425 23.00323887 -18.74841235 19.27080295 -19.36303711 14.89160156 C-18.76117316 10.75378689 -17.73786179 7.54507847 -14.86303711 4.45410156 C-9.81133448 1.07701802 -6.12386074 -0.12674556 0 0 Z " fill="#E6E7F4" transform="translate(379.863037109375,361.5458984375)"/>
<path d="M0 0 C9.77092155 -0.09288589 19.54173718 -0.16385908 29.31301117 -0.20724869 C33.85076042 -0.22807889 38.38820647 -0.25631246 42.92578125 -0.30175781 C47.30893412 -0.34537935 51.69179627 -0.36917143 56.07514954 -0.37950897 C57.74323601 -0.38687119 59.41130748 -0.40124781 61.07926941 -0.42292023 C77.49440365 -0.62762821 77.49440365 -0.62762821 84 4 C86.74130316 7.17683846 87.89287377 10.26350714 88.5 14.4375 C87.88528418 18.81735021 86.9511051 22.62432553 84 26 C76.24571286 31.36013224 67.8458636 30.50960487 58.8125 30.390625 C57.14242229 30.38315483 55.47233574 30.37746557 53.80224609 30.37347412 C49.42909088 30.35827872 45.056476 30.31905052 40.68353271 30.2746582 C36.21227322 30.2335731 31.74092552 30.21543497 27.26953125 30.1953125 C18.51277423 30.15254943 9.75645453 30.08437328 1 30 C0.20307162 19.96724089 -0.12847075 10.06354218 0 0 Z " fill="#EFEFF6" transform="translate(63,361)"/>
</svg>
